# xmcd CD database file
#
# Track frame offsets:
#	150
#	20226
#	36276
#	51150
#	67296
#	89340
#	108047
#	123851
#	144407
#	157230
#
# Disc length: 2293 seconds
#
# Revision: 0
# Processed by: cddbd v1.5.2PL0 Copyright (c) Steve Scherf et al.
# Submitted via: CDex 1.51
#
DISCID=8e08f30a
DTITLE=Beverly McClellan - Beverly McClellan
DYEAR=2011
DGENRE=Blues
TTITLE0=Never Will Forget
TTITLE1=I Can't Hide Me
TTITLE2=Tender Of The Most
TTITLE3=Words
TTITLE4=Shabba's Song
TTITLE5=Moon And You
TTITLE6=Tides That Bind
TTITLE7=Whatever Will be
TTITLE8=It Ain't Me
TTITLE9=We The People
EXTD=YEAR: 2011
EXTT0=
EXTT1=
EXTT2=
EXTT3=
EXTT4=
EXTT5=
EXTT6=
EXTT7=
EXTT8=
EXTT9=
PLAYORDER=
